<svg width="71" height="71" viewBox="0 0 71 71" fill="none" xmlns="http://www.w3.org/2000/svg">
<rect width="71" height="71" rx="15" fill="#318CCF"/>
<path d="M24.7 50V45.04L35.18 35.24C35.9267 34.5467 36.4733 33.9333 36.82 33.4C37.1933 32.8667 37.4333 32.3867 37.54 31.96C37.6733 31.5067 37.74 31.0933 37.74 30.72C37.74 29.8133 37.4333 29.1067 36.82 28.6C36.2333 28.0933 35.34 27.84 34.14 27.84C33.1267 27.84 32.18 28.0667 31.3 28.52C30.42 28.9733 29.7 29.6533 29.14 30.56L23.26 27.28C24.3 25.52 25.8067 24.1067 27.78 23.04C29.7533 21.9733 32.1133 21.44 34.86 21.44C37.02 21.44 38.9133 21.7867 40.54 22.48C42.1667 23.1733 43.4333 24.16 44.34 25.44C45.2733 26.72 45.74 28.2267 45.74 29.96C45.74 30.8667 45.62 31.7733 45.38 32.68C45.14 33.56 44.6733 34.5067 43.98 35.52C43.3133 36.5067 42.3133 37.6133 40.98 38.84L32.66 46.52L31.34 43.72H46.5V50H24.7Z" fill="white"/>
</svg>
