<svg width="71" height="71" viewBox="0 0 71 71" fill="none" xmlns="http://www.w3.org/2000/svg">
<rect width="71" height="71" rx="15" fill="#2B404F"/>
<path d="M33.72 50.56C31.7733 50.56 29.8267 50.32 27.88 49.84C25.96 49.36 24.28 48.68 22.84 47.8L25.72 41.84C26.84 42.5867 28.08 43.16 29.44 43.56C30.8267 43.96 32.1733 44.16 33.48 44.16C34.84 44.16 35.92 43.9067 36.72 43.4C37.52 42.8933 37.92 42.1733 37.92 41.24C37.92 40.4133 37.5867 39.76 36.92 39.28C36.2533 38.7733 35.16 38.52 33.64 38.52H30.32V33.52L37.84 25.4L38.6 28.12H24.28V22H44.52V26.96L37 35.08L33.12 32.88H35.28C38.7733 32.88 41.4133 33.6667 43.2 35.24C45.0133 36.7867 45.92 38.7867 45.92 41.24C45.92 42.84 45.48 44.3467 44.6 45.76C43.7467 47.1733 42.4267 48.3333 40.64 49.24C38.8533 50.12 36.5467 50.56 33.72 50.56Z" fill="white"/>
</svg>
