<svg width="71" height="71" viewBox="0 0 71 71" fill="none" xmlns="http://www.w3.org/2000/svg">
<rect width="71" height="71" rx="15" fill="#00B950"/>
<path d="M34.16 50.56C32.24 50.56 30.3067 50.32 28.36 49.84C26.4133 49.36 24.7333 48.68 23.32 47.8L26.16 41.84C27.3067 42.5867 28.5467 43.16 29.88 43.56C31.24 43.96 32.5867 44.16 33.92 44.16C35.2533 44.16 36.3333 43.9067 37.16 43.4C37.9867 42.8667 38.4 42.1333 38.4 41.2C38.4 40.64 38.24 40.1467 37.92 39.72C37.6 39.2667 37.0533 38.9333 36.28 38.72C35.5067 38.48 34.4 38.36 32.96 38.36H25.36L26.76 22H44.6V28.12H29.56L33.6 24.64L32.68 35.68L28.64 32.2H34.84C37.6133 32.2 39.84 32.6 41.52 33.4C43.2 34.1733 44.4267 35.2267 45.2 36.56C45.9733 37.8667 46.36 39.3467 46.36 41C46.36 42.6533 45.92 44.2133 45.04 45.68C44.1867 47.12 42.8667 48.2933 41.08 49.2C39.2933 50.1067 36.9867 50.56 34.16 50.56Z" fill="white"/>
</svg>
