<svg xmlns="http://www.w3.org/2000/svg" viewBox="0 0 324.08 79.51"><defs><style>.cls-1{fill:#777778;}.cls-2{fill:#4daf50;}.cls-3{fill:#e94539;}.cls-4{fill:#fcc00e;}.cls-5{fill:#428ecc;}</style></defs><g id="Camada_2" data-name="Camada 2"><g id="Camada_1-2" data-name="Camada 1"><path class="cls-1" d="M68.81,60.24a21.08,21.08,0,0,1-8-8.13,23.58,23.58,0,0,1-2.93-11.75,23.6,23.6,0,0,1,2.93-11.75,21.08,21.08,0,0,1,8-8.13,24.07,24.07,0,0,1,23,0,21.1,21.1,0,0,1,8,8.13,23.6,23.6,0,0,1,2.92,11.75,23.57,23.57,0,0,1-2.92,11.75,21.1,21.1,0,0,1-8,8.13,24.07,24.07,0,0,1-23,0Zm20.74-3.36A17.24,17.24,0,0,0,96,50.17a20.11,20.11,0,0,0,2.36-9.81A20.11,20.11,0,0,0,96,30.55a17.24,17.24,0,0,0-6.46-6.71,19,19,0,0,0-18.5,0,17.21,17.21,0,0,0-6.45,6.71,20,20,0,0,0-2.37,9.81,20,20,0,0,0,2.37,9.81,17.21,17.21,0,0,0,6.45,6.71,19,19,0,0,0,18.5,0Z"/><path class="cls-1" d="M223.06,20.48a21,21,0,0,1,8,8.09,23.78,23.78,0,0,1,2.88,11.79A24,24,0,0,1,231,52.19a20.64,20.64,0,0,1-8,8.09,22.65,22.65,0,0,1-11.36,2.88,21.08,21.08,0,0,1-10.76-2.79,19.44,19.44,0,0,1-7.49-7.79V79.51h-4.3V17.9h4.13V28.48a19.61,19.61,0,0,1,7.53-8,21,21,0,0,1,10.89-2.88A22.38,22.38,0,0,1,223.06,20.48Zm-2.33,36.4a17.13,17.13,0,0,0,6.5-6.71,20,20,0,0,0,2.37-9.81,20,20,0,0,0-2.37-9.81,17.13,17.13,0,0,0-6.5-6.71,18,18,0,0,0-9.29-2.41,17.83,17.83,0,0,0-9.25,2.41,17.24,17.24,0,0,0-6.46,6.71,20.11,20.11,0,0,0-2.36,9.81,20.11,20.11,0,0,0,2.36,9.81,17.24,17.24,0,0,0,6.46,6.71,17.83,17.83,0,0,0,9.25,2.41A18,18,0,0,0,220.73,56.88Z"/><path class="cls-1" d="M253.52,20.18a20.41,20.41,0,0,1,10.67-2.62v4.21l-1-.08q-7.49,0-11.71,4.69t-4.21,13V62.82h-4.31V17.9h4.13v9.81A15.55,15.55,0,0,1,253.52,20.18Z"/><path class="cls-1" d="M309.28,41.39H270.64a18.86,18.86,0,0,0,2.67,9.34,17.07,17.07,0,0,0,6.76,6.32,20.19,20.19,0,0,0,9.59,2.24,20.54,20.54,0,0,0,8.13-1.59A15.73,15.73,0,0,0,304,53l2.5,2.84a19.13,19.13,0,0,1-7.36,5.42,25.67,25.67,0,0,1-21.56-1,21.21,21.21,0,0,1-8.21-8.09,23.21,23.21,0,0,1-3-11.79,24.51,24.51,0,0,1,2.79-11.75,20.68,20.68,0,0,1,7.71-8.13,22.27,22.27,0,0,1,22,0,20.46,20.46,0,0,1,7.66,8,24.16,24.16,0,0,1,2.8,11.71ZM279.42,23.45a16.16,16.16,0,0,0-6.07,5.94A19.32,19.32,0,0,0,270.73,38h34.42a18,18,0,0,0-2.58-8.61,16.7,16.7,0,0,0-14.63-8.09A17.17,17.17,0,0,0,279.42,23.45Z"/><path class="cls-2" d="M318.06,6a3.26,3.26,0,0,1-1-2.45,3.4,3.4,0,0,1,1-2.5,3.39,3.39,0,0,1,2.49-1,3.48,3.48,0,0,1,2.5,1,3.26,3.26,0,0,1,1,2.45,3.4,3.4,0,0,1-1,2.5,3.4,3.4,0,0,1-2.5,1A3.47,3.47,0,0,1,318.06,6Zm.34,11.92h4.31V62.82H318.4Z"/><path class="cls-1" d="M159.48,16.81q7.32,0,11.78,4.55t4.47,12.77V62.44h-4.47V34.13q0-6.24-3.26-9.64a11.39,11.39,0,0,0-8.61-3.39,12.46,12.46,0,0,0-9.69,4.1Q146,29.31,146,37.53V62.44h-4.46V34.13q0-6.24-3.08-9.64a10.72,10.72,0,0,0-8.35-3.39,13.06,13.06,0,0,0-9.86,4.15q-4,4.16-4,12.28V62.44H111.8V17.79h4.46v7.68q4.65-8.66,14.38-8.66a15.42,15.42,0,0,1,8.57,2.37,13.65,13.65,0,0,1,5.36,6.74,15.9,15.9,0,0,1,6.29-6.83A17,17,0,0,1,159.48,16.81Z"/><path class="cls-3" d="M39.05,27.51a5.17,5.17,0,0,1-1.62-3.85,5.32,5.32,0,0,1,1.62-3.9,5.56,5.56,0,0,1,4.07-1.61,5.7,5.7,0,0,1,4.07,1.53,5,5,0,0,1,1.62,3.8,5.4,5.4,0,0,1-1.62,4,5.52,5.52,0,0,1-4.07,1.62A5.6,5.6,0,0,1,39.05,27.51Z"/><path class="cls-4" d="M39.05,43.82A5.16,5.16,0,0,1,37.43,40a5.31,5.31,0,0,1,1.62-3.89,5.52,5.52,0,0,1,4.07-1.62A5.7,5.7,0,0,1,47.19,36a5,5,0,0,1,1.62,3.81,5.42,5.42,0,0,1-1.62,4,5.52,5.52,0,0,1-4.07,1.62A5.61,5.61,0,0,1,39.05,43.82Z"/><path class="cls-5" d="M32.8,56a25,25,0,0,1-12.33-3.06,22.27,22.27,0,0,1-8.62-8.44,23.64,23.64,0,0,1-3.1-12,23.64,23.64,0,0,1,3.1-12A22.2,22.2,0,0,1,20.47,12,25,25,0,0,1,32.8,8.92,24.37,24.37,0,0,1,42,10.61l6.1-5.91c-.8-.42-1.63-.81-2.49-1.16A34.6,34.6,0,0,0,32.45,1.13,34.09,34.09,0,0,0,15.83,5.2,29.83,29.83,0,0,0,4.2,16.4,31,31,0,0,0,0,32.45a31,31,0,0,0,4.2,16A29.93,29.93,0,0,0,15.79,59.7a33.83,33.83,0,0,0,16.58,4.07,34.49,34.49,0,0,0,13.16-2.45c.86-.35,1.69-.75,2.49-1.17l-6.08-5.89A24,24,0,0,1,32.8,56Z"/></g></g></svg>